<?xml version="1.0" encoding="UTF-8" ?>
<svg version="1.1" width="32" height="32" xmlns="http://www.w3.org/2000/svg" shape-rendering="crispEdges">
<rect x="13" y="1" width="1" height="1" fill="#717171" />
<rect x="14" y="1" width="1" height="1" fill="#717171" />
<rect x="15" y="1" width="1" height="1" fill="#717171" />
<rect x="16" y="1" width="1" height="1" fill="#717171" />
<rect x="17" y="1" width="1" height="1" fill="#717171" />
<rect x="18" y="1" width="1" height="1" fill="#717171" />
<rect x="10" y="2" width="1" height="1" fill="#717171" />
<rect x="11" y="2" width="1" height="1" fill="#717171" />
<rect x="12" y="2" width="1" height="1" fill="#717171" />
<rect x="13" y="2" width="1" height="1" fill="#717171" />
<rect x="14" y="2" width="1" height="1" fill="#717171" />
<rect x="15" y="2" width="1" height="1" fill="#717171" />
<rect x="16" y="2" width="1" height="1" fill="#717171" />
<rect x="17" y="2" width="1" height="1" fill="#717171" />
<rect x="18" y="2" width="1" height="1" fill="#717171" />
<rect x="19" y="2" width="1" height="1" fill="#717171" />
<rect x="20" y="2" width="1" height="1" fill="#717171" />
<rect x="21" y="2" width="1" height="1" fill="#717171" />
<rect x="8" y="3" width="1" height="1" fill="#717171" />
<rect x="9" y="3" width="1" height="1" fill="#717171" />
<rect x="10" y="3" width="1" height="1" fill="#717171" />
<rect x="11" y="3" width="1" height="1" fill="#717171" />
<rect x="12" y="3" width="1" height="1" fill="#717171" />
<rect x="19" y="3" width="1" height="1" fill="#717171" />
<rect x="20" y="3" width="1" height="1" fill="#717171" />
<rect x="21" y="3" width="1" height="1" fill="#717171" />
<rect x="22" y="3" width="1" height="1" fill="#717171" />
<rect x="23" y="3" width="1" height="1" fill="#717171" />
<rect x="7" y="4" width="1" height="1" fill="#717171" />
<rect x="8" y="4" width="1" height="1" fill="#717171" />
<rect x="9" y="4" width="1" height="1" fill="#717171" />
<rect x="22" y="4" width="1" height="1" fill="#717171" />
<rect x="23" y="4" width="1" height="1" fill="#717171" />
<rect x="24" y="4" width="1" height="1" fill="#717171" />
<rect x="6" y="5" width="1" height="1" fill="#717171" />
<rect x="7" y="5" width="1" height="1" fill="#717171" />
<rect x="13" y="5" width="1" height="1" fill="#2A2A2A" />
<rect x="14" y="5" width="1" height="1" fill="#2A2A2A" />
<rect x="15" y="5" width="1" height="1" fill="#2A2A2A" />
<rect x="16" y="5" width="1" height="1" fill="#2A2A2A" />
<rect x="17" y="5" width="1" height="1" fill="#2A2A2A" />
<rect x="18" y="5" width="1" height="1" fill="#2A2A2A" />
<rect x="24" y="5" width="1" height="1" fill="#717171" />
<rect x="25" y="5" width="1" height="1" fill="#717171" />
<rect x="5" y="6" width="1" height="1" fill="#717171" />
<rect x="6" y="6" width="1" height="1" fill="#717171" />
<rect x="11" y="6" width="1" height="1" fill="#2A2A2A" />
<rect x="12" y="6" width="1" height="1" fill="#2A2A2A" />
<rect x="19" y="6" width="1" height="1" fill="#2A2A2A" />
<rect x="20" y="6" width="1" height="1" fill="#2A2A2A" />
<rect x="25" y="6" width="1" height="1" fill="#717171" />
<rect x="26" y="6" width="1" height="1" fill="#717171" />
<rect x="4" y="7" width="1" height="1" fill="#717171" />
<rect x="5" y="7" width="1" height="1" fill="#717171" />
<rect x="10" y="7" width="1" height="1" fill="#2A2A2A" />
<rect x="21" y="7" width="1" height="1" fill="#2A2A2A" />
<rect x="26" y="7" width="1" height="1" fill="#717171" />
<rect x="27" y="7" width="1" height="1" fill="#717171" />
<rect x="3" y="8" width="1" height="1" fill="#717171" />
<rect x="4" y="8" width="1" height="1" fill="#717171" />
<rect x="9" y="8" width="1" height="1" fill="#2A2A2A" />
<rect x="22" y="8" width="1" height="1" fill="#2A2A2A" />
<rect x="27" y="8" width="1" height="1" fill="#717171" />
<rect x="28" y="8" width="1" height="1" fill="#717171" />
<rect x="3" y="9" width="1" height="1" fill="#717171" />
<rect x="4" y="9" width="1" height="1" fill="#717171" />
<rect x="8" y="9" width="1" height="1" fill="#2A2A2A" />
<rect x="19" y="9" width="1" height="1" fill="#FFFFFF" />
<rect x="23" y="9" width="1" height="1" fill="#2A2A2A" />
<rect x="27" y="9" width="1" height="1" fill="#717171" />
<rect x="28" y="9" width="1" height="1" fill="#717171" />
<rect x="2" y="10" width="1" height="1" fill="#717171" />
<rect x="3" y="10" width="1" height="1" fill="#717171" />
<rect x="7" y="10" width="1" height="1" fill="#2A2A2A" />
<rect x="24" y="10" width="1" height="1" fill="#2A2A2A" />
<rect x="28" y="10" width="1" height="1" fill="#717171" />
<rect x="29" y="10" width="1" height="1" fill="#717171" />
<rect x="2" y="11" width="1" height="1" fill="#717171" />
<rect x="3" y="11" width="1" height="1" fill="#717171" />
<rect x="6" y="11" width="1" height="1" fill="#2A2A2A" />
<rect x="11" y="11" width="1" height="1" fill="#4B4B4B" />
<rect x="12" y="11" width="1" height="1" fill="#4B4B4B" />
<rect x="25" y="11" width="1" height="1" fill="#2A2A2A" />
<rect x="28" y="11" width="1" height="1" fill="#717171" />
<rect x="29" y="11" width="1" height="1" fill="#717171" />
<rect x="2" y="12" width="1" height="1" fill="#717171" />
<rect x="3" y="12" width="1" height="1" fill="#717171" />
<rect x="6" y="12" width="1" height="1" fill="#2A2A2A" />
<rect x="11" y="12" width="1" height="1" fill="#4B4B4B" />
<rect x="12" y="12" width="1" height="1" fill="#4B4B4B" />
<rect x="25" y="12" width="1" height="1" fill="#2A2A2A" />
<rect x="28" y="12" width="1" height="1" fill="#717171" />
<rect x="29" y="12" width="1" height="1" fill="#717171" />
<rect x="1" y="13" width="1" height="1" fill="#717171" />
<rect x="2" y="13" width="1" height="1" fill="#717171" />
<rect x="5" y="13" width="1" height="1" fill="#2A2A2A" />
<rect x="8" y="13" width="1" height="1" fill="#FFFFFF" />
<rect x="26" y="13" width="1" height="1" fill="#2A2A2A" />
<rect x="29" y="13" width="1" height="1" fill="#717171" />
<rect x="30" y="13" width="1" height="1" fill="#717171" />
<rect x="1" y="14" width="1" height="1" fill="#717171" />
<rect x="2" y="14" width="1" height="1" fill="#717171" />
<rect x="5" y="14" width="1" height="1" fill="#2A2A2A" />
<rect x="26" y="14" width="1" height="1" fill="#2A2A2A" />
<rect x="29" y="14" width="1" height="1" fill="#717171" />
<rect x="30" y="14" width="1" height="1" fill="#717171" />
<rect x="1" y="15" width="1" height="1" fill="#717171" />
<rect x="2" y="15" width="1" height="1" fill="#717171" />
<rect x="5" y="15" width="1" height="1" fill="#2A2A2A" />
<rect x="17" y="15" width="1" height="1" fill="#4B4B4B" />
<rect x="22" y="15" width="1" height="1" fill="#4B4B4B" />
<rect x="26" y="15" width="1" height="1" fill="#2A2A2A" />
<rect x="29" y="15" width="1" height="1" fill="#717171" />
<rect x="30" y="15" width="1" height="1" fill="#717171" />
<rect x="1" y="16" width="1" height="1" fill="#717171" />
<rect x="2" y="16" width="1" height="1" fill="#717171" />
<rect x="5" y="16" width="1" height="1" fill="#2A2A2A" />
<rect x="11" y="16" width="1" height="1" fill="#FFFFFF" />
<rect x="12" y="16" width="1" height="1" fill="#FFFFFF" />
<rect x="21" y="16" width="1" height="1" fill="#4B4B4B" />
<rect x="23" y="16" width="1" height="1" fill="#4B4B4B" />
<rect x="26" y="16" width="1" height="1" fill="#2A2A2A" />
<rect x="29" y="16" width="1" height="1" fill="#717171" />
<rect x="30" y="16" width="1" height="1" fill="#717171" />
<rect x="1" y="17" width="1" height="1" fill="#717171" />
<rect x="2" y="17" width="1" height="1" fill="#717171" />
<rect x="5" y="17" width="1" height="1" fill="#2A2A2A" />
<rect x="10" y="17" width="1" height="1" fill="#FFFFFF" />
<rect x="13" y="17" width="1" height="1" fill="#FFFFFF" />
<rect x="22" y="17" width="1" height="1" fill="#4B4B4B" />
<rect x="26" y="17" width="1" height="1" fill="#2A2A2A" />
<rect x="29" y="17" width="1" height="1" fill="#717171" />
<rect x="30" y="17" width="1" height="1" fill="#717171" />
<rect x="1" y="18" width="1" height="1" fill="#717171" />
<rect x="2" y="18" width="1" height="1" fill="#717171" />
<rect x="5" y="18" width="1" height="1" fill="#2A2A2A" />
<rect x="10" y="18" width="1" height="1" fill="#FFFFFF" />
<rect x="13" y="18" width="1" height="1" fill="#FFFFFF" />
<rect x="26" y="18" width="1" height="1" fill="#2A2A2A" />
<rect x="29" y="18" width="1" height="1" fill="#717171" />
<rect x="30" y="18" width="1" height="1" fill="#717171" />
<rect x="2" y="19" width="1" height="1" fill="#717171" />
<rect x="3" y="19" width="1" height="1" fill="#717171" />
<rect x="6" y="19" width="1" height="1" fill="#2A2A2A" />
<rect x="11" y="19" width="1" height="1" fill="#FFFFFF" />
<rect x="12" y="19" width="1" height="1" fill="#FFFFFF" />
<rect x="25" y="19" width="1" height="1" fill="#2A2A2A" />
<rect x="28" y="19" width="1" height="1" fill="#717171" />
<rect x="29" y="19" width="1" height="1" fill="#717171" />
<rect x="2" y="20" width="1" height="1" fill="#717171" />
<rect x="3" y="20" width="1" height="1" fill="#717171" />
<rect x="6" y="20" width="1" height="1" fill="#2A2A2A" />
<rect x="25" y="20" width="1" height="1" fill="#2A2A2A" />
<rect x="28" y="20" width="1" height="1" fill="#717171" />
<rect x="29" y="20" width="1" height="1" fill="#717171" />
<rect x="2" y="21" width="1" height="1" fill="#717171" />
<rect x="3" y="21" width="1" height="1" fill="#717171" />
<rect x="7" y="21" width="1" height="1" fill="#2A2A2A" />
<rect x="21" y="21" width="1" height="1" fill="#4B4B4B" />
<rect x="24" y="21" width="1" height="1" fill="#2A2A2A" />
<rect x="28" y="21" width="1" height="1" fill="#717171" />
<rect x="29" y="21" width="1" height="1" fill="#717171" />
<rect x="3" y="22" width="1" height="1" fill="#717171" />
<rect x="4" y="22" width="1" height="1" fill="#717171" />
<rect x="8" y="22" width="1" height="1" fill="#2A2A2A" />
<rect x="16" y="22" width="1" height="1" fill="#4B4B4B" />
<rect x="17" y="22" width="1" height="1" fill="#4B4B4B" />
<rect x="23" y="22" width="1" height="1" fill="#2A2A2A" />
<rect x="27" y="22" width="1" height="1" fill="#717171" />
<rect x="28" y="22" width="1" height="1" fill="#717171" />
<rect x="3" y="23" width="1" height="1" fill="#717171" />
<rect x="4" y="23" width="1" height="1" fill="#717171" />
<rect x="9" y="23" width="1" height="1" fill="#2A2A2A" />
<rect x="16" y="23" width="1" height="1" fill="#4B4B4B" />
<rect x="17" y="23" width="1" height="1" fill="#4B4B4B" />
<rect x="22" y="23" width="1" height="1" fill="#2A2A2A" />
<rect x="27" y="23" width="1" height="1" fill="#717171" />
<rect x="28" y="23" width="1" height="1" fill="#717171" />
<rect x="4" y="24" width="1" height="1" fill="#717171" />
<rect x="5" y="24" width="1" height="1" fill="#717171" />
<rect x="10" y="24" width="1" height="1" fill="#2A2A2A" />
<rect x="21" y="24" width="1" height="1" fill="#2A2A2A" />
<rect x="26" y="24" width="1" height="1" fill="#717171" />
<rect x="27" y="24" width="1" height="1" fill="#717171" />
<rect x="5" y="25" width="1" height="1" fill="#717171" />
<rect x="6" y="25" width="1" height="1" fill="#717171" />
<rect x="11" y="25" width="1" height="1" fill="#2A2A2A" />
<rect x="12" y="25" width="1" height="1" fill="#2A2A2A" />
<rect x="19" y="25" width="1" height="1" fill="#2A2A2A" />
<rect x="20" y="25" width="1" height="1" fill="#2A2A2A" />
<rect x="25" y="25" width="1" height="1" fill="#717171" />
<rect x="26" y="25" width="1" height="1" fill="#717171" />
<rect x="6" y="26" width="1" height="1" fill="#717171" />
<rect x="7" y="26" width="1" height="1" fill="#717171" />
<rect x="13" y="26" width="1" height="1" fill="#2A2A2A" />
<rect x="14" y="26" width="1" height="1" fill="#2A2A2A" />
<rect x="15" y="26" width="1" height="1" fill="#2A2A2A" />
<rect x="16" y="26" width="1" height="1" fill="#2A2A2A" />
<rect x="17" y="26" width="1" height="1" fill="#2A2A2A" />
<rect x="18" y="26" width="1" height="1" fill="#2A2A2A" />
<rect x="24" y="26" width="1" height="1" fill="#717171" />
<rect x="25" y="26" width="1" height="1" fill="#717171" />
<rect x="7" y="27" width="1" height="1" fill="#717171" />
<rect x="8" y="27" width="1" height="1" fill="#717171" />
<rect x="9" y="27" width="1" height="1" fill="#717171" />
<rect x="22" y="27" width="1" height="1" fill="#717171" />
<rect x="23" y="27" width="1" height="1" fill="#717171" />
<rect x="24" y="27" width="1" height="1" fill="#717171" />
<rect x="8" y="28" width="1" height="1" fill="#717171" />
<rect x="9" y="28" width="1" height="1" fill="#717171" />
<rect x="10" y="28" width="1" height="1" fill="#717171" />
<rect x="11" y="28" width="1" height="1" fill="#717171" />
<rect x="12" y="28" width="1" height="1" fill="#717171" />
<rect x="19" y="28" width="1" height="1" fill="#717171" />
<rect x="20" y="28" width="1" height="1" fill="#717171" />
<rect x="21" y="28" width="1" height="1" fill="#717171" />
<rect x="22" y="28" width="1" height="1" fill="#717171" />
<rect x="23" y="28" width="1" height="1" fill="#717171" />
<rect x="10" y="29" width="1" height="1" fill="#717171" />
<rect x="11" y="29" width="1" height="1" fill="#717171" />
<rect x="12" y="29" width="1" height="1" fill="#717171" />
<rect x="13" y="29" width="1" height="1" fill="#717171" />
<rect x="14" y="29" width="1" height="1" fill="#717171" />
<rect x="15" y="29" width="1" height="1" fill="#717171" />
<rect x="16" y="29" width="1" height="1" fill="#717171" />
<rect x="17" y="29" width="1" height="1" fill="#717171" />
<rect x="18" y="29" width="1" height="1" fill="#717171" />
<rect x="19" y="29" width="1" height="1" fill="#717171" />
<rect x="20" y="29" width="1" height="1" fill="#717171" />
<rect x="21" y="29" width="1" height="1" fill="#717171" />
<rect x="13" y="30" width="1" height="1" fill="#717171" />
<rect x="14" y="30" width="1" height="1" fill="#717171" />
<rect x="15" y="30" width="1" height="1" fill="#717171" />
<rect x="16" y="30" width="1" height="1" fill="#717171" />
<rect x="17" y="30" width="1" height="1" fill="#717171" />
<rect x="18" y="30" width="1" height="1" fill="#717171" />
</svg>