<?xml version="1.0" encoding="UTF-8" ?>
<svg version="1.1" width="32" height="32" xmlns="http://www.w3.org/2000/svg" shape-rendering="crispEdges">
<rect x="23" y="4" width="1" height="1" fill="#B4B4B4" />
<rect x="24" y="4" width="1" height="1" fill="#B4B4B4" />
<rect x="25" y="4" width="1" height="1" fill="#B4B4B4" />
<rect x="8" y="5" width="1" height="1" fill="#B4B4B4" />
<rect x="9" y="5" width="1" height="1" fill="#B4B4B4" />
<rect x="10" y="5" width="1" height="1" fill="#B4B4B4" />
<rect x="11" y="5" width="1" height="1" fill="#B4B4B4" />
<rect x="16" y="5" width="1" height="1" fill="#888888" />
<rect x="17" y="5" width="1" height="1" fill="#FFFFFF" />
<rect x="18" y="5" width="1" height="1" fill="#888888" />
<rect x="22" y="5" width="1" height="1" fill="#B4B4B4" />
<rect x="23" y="5" width="1" height="1" fill="#B4B4B4" />
<rect x="24" y="5" width="1" height="1" fill="#8A8A8A" />
<rect x="25" y="5" width="1" height="1" fill="#8A8A8A" />
<rect x="26" y="5" width="1" height="1" fill="#B4B4B4" />
<rect x="7" y="6" width="1" height="1" fill="#B4B4B4" />
<rect x="8" y="6" width="1" height="1" fill="#8A8A8A" />
<rect x="9" y="6" width="1" height="1" fill="#8A8A8A" />
<rect x="10" y="6" width="1" height="1" fill="#8A8A8A" />
<rect x="11" y="6" width="1" height="1" fill="#8A8A8A" />
<rect x="12" y="6" width="1" height="1" fill="#B4B4B4" />
<rect x="16" y="6" width="1" height="1" fill="#FFFFFF" />
<rect x="17" y="6" width="1" height="1" fill="#FFFFFF" />
<rect x="18" y="6" width="1" height="1" fill="#FFFFFF" />
<rect x="22" y="6" width="1" height="1" fill="#B4B4B4" />
<rect x="23" y="6" width="1" height="1" fill="#B4B4B4" />
<rect x="24" y="6" width="1" height="1" fill="#B4B4B4" />
<rect x="25" y="6" width="1" height="1" fill="#8A8A8A" />
<rect x="26" y="6" width="1" height="1" fill="#B4B4B4" />
<rect x="6" y="7" width="1" height="1" fill="#B4B4B4" />
<rect x="7" y="7" width="1" height="1" fill="#B4B4B4" />
<rect x="8" y="7" width="1" height="1" fill="#8A8A8A" />
<rect x="9" y="7" width="1" height="1" fill="#8A8A8A" />
<rect x="10" y="7" width="1" height="1" fill="#8A8A8A" />
<rect x="11" y="7" width="1" height="1" fill="#8A8A8A" />
<rect x="12" y="7" width="1" height="1" fill="#B4B4B4" />
<rect x="16" y="7" width="1" height="1" fill="#888888" />
<rect x="17" y="7" width="1" height="1" fill="#FFFFFF" />
<rect x="18" y="7" width="1" height="1" fill="#888888" />
<rect x="22" y="7" width="1" height="1" fill="#B4B4B4" />
<rect x="23" y="7" width="1" height="1" fill="#CCCCCC" />
<rect x="24" y="7" width="1" height="1" fill="#B4B4B4" />
<rect x="25" y="7" width="1" height="1" fill="#B4B4B4" />
<rect x="26" y="7" width="1" height="1" fill="#B4B4B4" />
<rect x="6" y="8" width="1" height="1" fill="#B4B4B4" />
<rect x="7" y="8" width="1" height="1" fill="#B4B4B4" />
<rect x="8" y="8" width="1" height="1" fill="#B4B4B4" />
<rect x="9" y="8" width="1" height="1" fill="#8A8A8A" />
<rect x="10" y="8" width="1" height="1" fill="#8A8A8A" />
<rect x="11" y="8" width="1" height="1" fill="#8A8A8A" />
<rect x="12" y="8" width="1" height="1" fill="#B4B4B4" />
<rect x="23" y="8" width="1" height="1" fill="#B4B4B4" />
<rect x="24" y="8" width="1" height="1" fill="#B4B4B4" />
<rect x="25" y="8" width="1" height="1" fill="#B4B4B4" />
<rect x="5" y="9" width="1" height="1" fill="#B4B4B4" />
<rect x="6" y="9" width="1" height="1" fill="#B4B4B4" />
<rect x="7" y="9" width="1" height="1" fill="#B4B4B4" />
<rect x="8" y="9" width="1" height="1" fill="#B4B4B4" />
<rect x="9" y="9" width="1" height="1" fill="#B4B4B4" />
<rect x="10" y="9" width="1" height="1" fill="#B4B4B4" />
<rect x="11" y="9" width="1" height="1" fill="#B4B4B4" />
<rect x="12" y="9" width="1" height="1" fill="#B4B4B4" />
<rect x="5" y="10" width="1" height="1" fill="#B4B4B4" />
<rect x="6" y="10" width="1" height="1" fill="#CCCCCC" />
<rect x="7" y="10" width="1" height="1" fill="#B4B4B4" />
<rect x="8" y="10" width="1" height="1" fill="#B4B4B4" />
<rect x="9" y="10" width="1" height="1" fill="#B4B4B4" />
<rect x="10" y="10" width="1" height="1" fill="#B4B4B4" />
<rect x="11" y="10" width="1" height="1" fill="#B4B4B4" />
<rect x="4" y="11" width="1" height="1" fill="#B4B4B4" />
<rect x="5" y="11" width="1" height="1" fill="#CCCCCC" />
<rect x="6" y="11" width="1" height="1" fill="#B4B4B4" />
<rect x="7" y="11" width="1" height="1" fill="#B4B4B4" />
<rect x="8" y="11" width="1" height="1" fill="#B4B4B4" />
<rect x="9" y="11" width="1" height="1" fill="#B4B4B4" />
<rect x="4" y="12" width="1" height="1" fill="#B4B4B4" />
<rect x="5" y="12" width="1" height="1" fill="#CCCCCC" />
<rect x="6" y="12" width="1" height="1" fill="#B4B4B4" />
<rect x="7" y="12" width="1" height="1" fill="#B4B4B4" />
<rect x="8" y="12" width="1" height="1" fill="#B4B4B4" />
<rect x="4" y="13" width="1" height="1" fill="#B4B4B4" />
<rect x="5" y="13" width="1" height="1" fill="#B4B4B4" />
<rect x="6" y="13" width="1" height="1" fill="#B4B4B4" />
<rect x="7" y="13" width="1" height="1" fill="#B4B4B4" />
<rect x="5" y="14" width="1" height="1" fill="#B4B4B4" />
<rect x="6" y="14" width="1" height="1" fill="#B4B4B4" />
<rect x="5" y="15" width="1" height="1" fill="#B4B4B4" />
<rect x="6" y="15" width="1" height="1" fill="#B4B4B4" />
<rect x="15" y="15" width="1" height="1" fill="#FFFFFF" />
<rect x="5" y="16" width="1" height="1" fill="#B4B4B4" />
<rect x="6" y="16" width="1" height="1" fill="#B4B4B4" />
<rect x="14" y="16" width="1" height="1" fill="#888888" />
<rect x="15" y="16" width="1" height="1" fill="#FFFFFF" />
<rect x="16" y="16" width="1" height="1" fill="#888888" />
<rect x="24" y="16" width="1" height="1" fill="#B4B4B4" />
<rect x="25" y="16" width="1" height="1" fill="#B4B4B4" />
<rect x="13" y="17" width="1" height="1" fill="#888888" />
<rect x="14" y="17" width="1" height="1" fill="#FFFFFF" />
<rect x="15" y="17" width="1" height="1" fill="#FFFFFF" />
<rect x="16" y="17" width="1" height="1" fill="#FFFFFF" />
<rect x="17" y="17" width="1" height="1" fill="#888888" />
<rect x="23" y="17" width="1" height="1" fill="#B4B4B4" />
<rect x="24" y="17" width="1" height="1" fill="#8A8A8A" />
<rect x="25" y="17" width="1" height="1" fill="#8A8A8A" />
<rect x="26" y="17" width="1" height="1" fill="#B4B4B4" />
<rect x="12" y="18" width="1" height="1" fill="#FFFFFF" />
<rect x="13" y="18" width="1" height="1" fill="#FFFFFF" />
<rect x="14" y="18" width="1" height="1" fill="#FFFFFF" />
<rect x="15" y="18" width="1" height="1" fill="#DCDCDC" />
<rect x="16" y="18" width="1" height="1" fill="#FFFFFF" />
<rect x="17" y="18" width="1" height="1" fill="#FFFFFF" />
<rect x="18" y="18" width="1" height="1" fill="#FFFFFF" />
<rect x="22" y="18" width="1" height="1" fill="#B4B4B4" />
<rect x="23" y="18" width="1" height="1" fill="#B4B4B4" />
<rect x="24" y="18" width="1" height="1" fill="#8A8A8A" />
<rect x="25" y="18" width="1" height="1" fill="#8A8A8A" />
<rect x="26" y="18" width="1" height="1" fill="#B4B4B4" />
<rect x="13" y="19" width="1" height="1" fill="#888888" />
<rect x="14" y="19" width="1" height="1" fill="#FFFFFF" />
<rect x="15" y="19" width="1" height="1" fill="#FFFFFF" />
<rect x="16" y="19" width="1" height="1" fill="#FFFFFF" />
<rect x="17" y="19" width="1" height="1" fill="#888888" />
<rect x="22" y="19" width="1" height="1" fill="#B4B4B4" />
<rect x="23" y="19" width="1" height="1" fill="#B4B4B4" />
<rect x="24" y="19" width="1" height="1" fill="#B4B4B4" />
<rect x="25" y="19" width="1" height="1" fill="#B4B4B4" />
<rect x="26" y="19" width="1" height="1" fill="#B4B4B4" />
<rect x="27" y="19" width="1" height="1" fill="#B4B4B4" />
<rect x="14" y="20" width="1" height="1" fill="#888888" />
<rect x="15" y="20" width="1" height="1" fill="#FFFFFF" />
<rect x="16" y="20" width="1" height="1" fill="#888888" />
<rect x="22" y="20" width="1" height="1" fill="#B4B4B4" />
<rect x="23" y="20" width="1" height="1" fill="#B4B4B4" />
<rect x="24" y="20" width="1" height="1" fill="#B4B4B4" />
<rect x="25" y="20" width="1" height="1" fill="#B4B4B4" />
<rect x="26" y="20" width="1" height="1" fill="#B4B4B4" />
<rect x="27" y="20" width="1" height="1" fill="#B4B4B4" />
<rect x="15" y="21" width="1" height="1" fill="#FFFFFF" />
<rect x="23" y="21" width="1" height="1" fill="#B4B4B4" />
<rect x="24" y="21" width="1" height="1" fill="#B4B4B4" />
<rect x="25" y="21" width="1" height="1" fill="#B4B4B4" />
<rect x="26" y="21" width="1" height="1" fill="#B4B4B4" />
<rect x="27" y="21" width="1" height="1" fill="#B4B4B4" />
<rect x="24" y="22" width="1" height="1" fill="#B4B4B4" />
<rect x="25" y="22" width="1" height="1" fill="#B4B4B4" />
<rect x="26" y="22" width="1" height="1" fill="#CCCCCC" />
<rect x="27" y="22" width="1" height="1" fill="#B4B4B4" />
<rect x="24" y="23" width="1" height="1" fill="#B4B4B4" />
<rect x="25" y="23" width="1" height="1" fill="#CCCCCC" />
<rect x="26" y="23" width="1" height="1" fill="#CCCCCC" />
<rect x="27" y="23" width="1" height="1" fill="#B4B4B4" />
<rect x="23" y="24" width="1" height="1" fill="#B4B4B4" />
<rect x="24" y="24" width="1" height="1" fill="#B4B4B4" />
<rect x="25" y="24" width="1" height="1" fill="#CCCCCC" />
<rect x="26" y="24" width="1" height="1" fill="#B4B4B4" />
<rect x="6" y="25" width="1" height="1" fill="#888888" />
<rect x="7" y="25" width="1" height="1" fill="#FFFFFF" />
<rect x="8" y="25" width="1" height="1" fill="#888888" />
<rect x="22" y="25" width="1" height="1" fill="#B4B4B4" />
<rect x="23" y="25" width="1" height="1" fill="#B4B4B4" />
<rect x="24" y="25" width="1" height="1" fill="#B4B4B4" />
<rect x="25" y="25" width="1" height="1" fill="#B4B4B4" />
<rect x="6" y="26" width="1" height="1" fill="#FFFFFF" />
<rect x="7" y="26" width="1" height="1" fill="#FFFFFF" />
<rect x="8" y="26" width="1" height="1" fill="#FFFFFF" />
<rect x="21" y="26" width="1" height="1" fill="#B4B4B4" />
<rect x="22" y="26" width="1" height="1" fill="#B4B4B4" />
<rect x="23" y="26" width="1" height="1" fill="#B4B4B4" />
<rect x="24" y="26" width="1" height="1" fill="#B4B4B4" />
<rect x="6" y="27" width="1" height="1" fill="#888888" />
<rect x="7" y="27" width="1" height="1" fill="#FFFFFF" />
<rect x="8" y="27" width="1" height="1" fill="#888888" />
<rect x="14" y="28" width="1" height="1" fill="#B4B4B4" />
<rect x="15" y="28" width="1" height="1" fill="#B4B4B4" />
<rect x="14" y="29" width="1" height="1" fill="#B4B4B4" />
<rect x="15" y="29" width="1" height="1" fill="#B4B4B4" />
</svg>