<?xml version="1.0" encoding="UTF-8" ?>
<svg version="1.1" width="32" height="32" xmlns="http://www.w3.org/2000/svg" shape-rendering="crispEdges">
<rect x="30" y="0" width="1" height="1" fill="#000000" opacity="0.164706" />
<rect x="28" y="1" width="1" height="1" fill="#6B6B6B" />
<rect x="29" y="1" width="1" height="1" fill="#6B6B6B" />
<rect x="30" y="1" width="1" height="1" fill="#030303" opacity="0.937255" />
<rect x="31" y="1" width="1" height="1" fill="#000000" />
<rect x="27" y="2" width="1" height="1" fill="#6B6B6B" />
<rect x="28" y="2" width="1" height="1" fill="#FFFFFF" />
<rect x="29" y="2" width="1" height="1" fill="#FFFFFF" />
<rect x="30" y="2" width="1" height="1" fill="#FFFFFF" />
<rect x="31" y="2" width="1" height="1" fill="#000000" />
<rect x="26" y="3" width="1" height="1" fill="#6B6B6B" />
<rect x="27" y="3" width="1" height="1" fill="#FFFFFF" />
<rect x="28" y="3" width="1" height="1" fill="#FFFFFF" />
<rect x="29" y="3" width="1" height="1" fill="#FFFFFF" />
<rect x="30" y="3" width="1" height="1" fill="#C5C5C5" />
<rect x="31" y="3" width="1" height="1" fill="#000000" />
<rect x="25" y="4" width="1" height="1" fill="#6D6D6D" />
<rect x="26" y="4" width="1" height="1" fill="#FFFFFF" />
<rect x="27" y="4" width="1" height="1" fill="#FFFFFF" />
<rect x="28" y="4" width="1" height="1" fill="#FFFFFF" />
<rect x="29" y="4" width="1" height="1" fill="#C5C5C5" />
<rect x="30" y="4" width="1" height="1" fill="#000000" />
<rect x="24" y="5" width="1" height="1" fill="#777777" />
<rect x="25" y="5" width="1" height="1" fill="#FFFFFF" />
<rect x="26" y="5" width="1" height="1" fill="#FFFFFF" />
<rect x="27" y="5" width="1" height="1" fill="#FFFFFF" />
<rect x="28" y="5" width="1" height="1" fill="#C5C5C5" />
<rect x="29" y="5" width="1" height="1" fill="#000000" />
<rect x="23" y="6" width="1" height="1" fill="#777777" />
<rect x="24" y="6" width="1" height="1" fill="#FFFFFF" />
<rect x="25" y="6" width="1" height="1" fill="#FFFFFF" />
<rect x="26" y="6" width="1" height="1" fill="#FFFFFF" />
<rect x="27" y="6" width="1" height="1" fill="#C5C5C5" />
<rect x="28" y="6" width="1" height="1" fill="#000000" />
<rect x="22" y="7" width="1" height="1" fill="#717171" />
<rect x="23" y="7" width="1" height="1" fill="#FFFFFF" />
<rect x="24" y="7" width="1" height="1" fill="#FFFFFF" />
<rect x="25" y="7" width="1" height="1" fill="#FFFFFF" />
<rect x="26" y="7" width="1" height="1" fill="#C5C5C5" />
<rect x="27" y="7" width="1" height="1" fill="#000000" />
<rect x="21" y="8" width="1" height="1" fill="#6B6B6B" />
<rect x="22" y="8" width="1" height="1" fill="#FFFFFF" />
<rect x="23" y="8" width="1" height="1" fill="#FFFFFF" />
<rect x="24" y="8" width="1" height="1" fill="#FFFFFF" />
<rect x="25" y="8" width="1" height="1" fill="#C5C5C5" />
<rect x="26" y="8" width="1" height="1" fill="#000000" />
<rect x="20" y="9" width="1" height="1" fill="#6B6B6B" />
<rect x="21" y="9" width="1" height="1" fill="#FFFFFF" />
<rect x="22" y="9" width="1" height="1" fill="#FFFFFF" />
<rect x="23" y="9" width="1" height="1" fill="#FFFFFF" />
<rect x="24" y="9" width="1" height="1" fill="#C5C5C5" />
<rect x="25" y="9" width="1" height="1" fill="#000000" />
<rect x="19" y="10" width="1" height="1" fill="#6B6B6B" />
<rect x="20" y="10" width="1" height="1" fill="#FFFFFF" />
<rect x="21" y="10" width="1" height="1" fill="#FFFFFF" />
<rect x="22" y="10" width="1" height="1" fill="#FFFFFF" />
<rect x="23" y="10" width="1" height="1" fill="#C5C5C5" />
<rect x="24" y="10" width="1" height="1" fill="#000000" />
<rect x="18" y="11" width="1" height="1" fill="#6B6B6B" />
<rect x="19" y="11" width="1" height="1" fill="#FFFFFF" />
<rect x="20" y="11" width="1" height="1" fill="#FFFFFF" />
<rect x="21" y="11" width="1" height="1" fill="#FFFFFF" />
<rect x="22" y="11" width="1" height="1" fill="#969696" />
<rect x="23" y="11" width="1" height="1" fill="#000000" />
<rect x="17" y="12" width="1" height="1" fill="#6B6B6B" />
<rect x="18" y="12" width="1" height="1" fill="#FFFFFF" />
<rect x="19" y="12" width="1" height="1" fill="#FFFFFF" />
<rect x="20" y="12" width="1" height="1" fill="#FFFFFF" />
<rect x="21" y="12" width="1" height="1" fill="#969696" />
<rect x="22" y="12" width="1" height="1" fill="#000000" />
<rect x="16" y="13" width="1" height="1" fill="#6B6B6B" />
<rect x="17" y="13" width="1" height="1" fill="#FFFFFF" />
<rect x="18" y="13" width="1" height="1" fill="#FFFFFF" />
<rect x="19" y="13" width="1" height="1" fill="#FFFFFF" />
<rect x="20" y="13" width="1" height="1" fill="#969696" />
<rect x="21" y="13" width="1" height="1" fill="#000000" />
<rect x="15" y="14" width="1" height="1" fill="#6B6B6B" />
<rect x="16" y="14" width="1" height="1" fill="#FFFFFF" />
<rect x="17" y="14" width="1" height="1" fill="#FFFFFF" />
<rect x="18" y="14" width="1" height="1" fill="#FFFFFF" />
<rect x="19" y="14" width="1" height="1" fill="#969696" />
<rect x="20" y="14" width="1" height="1" fill="#000000" />
<rect x="14" y="15" width="1" height="1" fill="#6B6B6B" />
<rect x="15" y="15" width="1" height="1" fill="#FFFFFF" />
<rect x="16" y="15" width="1" height="1" fill="#FFFFFF" />
<rect x="17" y="15" width="1" height="1" fill="#FFFFFF" />
<rect x="18" y="15" width="1" height="1" fill="#969696" />
<rect x="19" y="15" width="1" height="1" fill="#000000" />
<rect x="6" y="16" width="1" height="1" fill="#000000" />
<rect x="7" y="16" width="1" height="1" fill="#000000" />
<rect x="8" y="16" width="1" height="1" fill="#000000" />
<rect x="13" y="16" width="1" height="1" fill="#000000" />
<rect x="14" y="16" width="1" height="1" fill="#FFFFFF" />
<rect x="15" y="16" width="1" height="1" fill="#FFFFFF" />
<rect x="16" y="16" width="1" height="1" fill="#FFFFFF" />
<rect x="17" y="16" width="1" height="1" fill="#969696" />
<rect x="18" y="16" width="1" height="1" fill="#000000" />
<rect x="5" y="17" width="1" height="1" fill="#000000" />
<rect x="6" y="17" width="1" height="1" fill="#353535" />
<rect x="7" y="17" width="1" height="1" fill="#343434" />
<rect x="8" y="17" width="1" height="1" fill="#343434" />
<rect x="9" y="17" width="1" height="1" fill="#000000" />
<rect x="12" y="17" width="1" height="1" fill="#000000" />
<rect x="13" y="17" width="1" height="1" fill="#FFFFFF" />
<rect x="14" y="17" width="1" height="1" fill="#FFFFFF" />
<rect x="15" y="17" width="1" height="1" fill="#FFFFFF" />
<rect x="16" y="17" width="1" height="1" fill="#969696" />
<rect x="17" y="17" width="1" height="1" fill="#000000" />
<rect x="5" y="18" width="1" height="1" fill="#000000" />
<rect x="6" y="18" width="1" height="1" fill="#343434" />
<rect x="7" y="18" width="1" height="1" fill="#353535" />
<rect x="8" y="18" width="1" height="1" fill="#A5A5A5" />
<rect x="9" y="18" width="1" height="1" fill="#000000" />
<rect x="10" y="18" width="1" height="1" fill="#000000" opacity="0.890196" />
<rect x="11" y="18" width="1" height="1" fill="#000000" />
<rect x="12" y="18" width="1" height="1" fill="#FFFFFF" />
<rect x="13" y="18" width="1" height="1" fill="#FFFFFF" />
<rect x="14" y="18" width="1" height="1" fill="#FFFFFF" />
<rect x="15" y="18" width="1" height="1" fill="#969696" />
<rect x="16" y="18" width="1" height="1" fill="#000000" />
<rect x="5" y="19" width="1" height="1" fill="#000000" />
<rect x="6" y="19" width="1" height="1" fill="#343434" />
<rect x="7" y="19" width="1" height="1" fill="#A5A5A5" />
<rect x="8" y="19" width="1" height="1" fill="#353535" />
<rect x="9" y="19" width="1" height="1" fill="#353535" />
<rect x="10" y="19" width="1" height="1" fill="#000000" opacity="0.996078" />
<rect x="11" y="19" width="1" height="1" fill="#FFFFFF" />
<rect x="12" y="19" width="1" height="1" fill="#FFFFFF" />
<rect x="13" y="19" width="1" height="1" fill="#FFFFFF" />
<rect x="14" y="19" width="1" height="1" fill="#969696" />
<rect x="15" y="19" width="1" height="1" fill="#000000" />
<rect x="6" y="20" width="1" height="1" fill="#000000" />
<rect x="7" y="20" width="1" height="1" fill="#000000" />
<rect x="8" y="20" width="1" height="1" fill="#353535" />
<rect x="9" y="20" width="1" height="1" fill="#A5A5A5" />
<rect x="10" y="20" width="1" height="1" fill="#353535" />
<rect x="11" y="20" width="1" height="1" fill="#000000" opacity="0.847059" />
<rect x="12" y="20" width="1" height="1" fill="#FFFFFF" />
<rect x="13" y="20" width="1" height="1" fill="#969696" />
<rect x="14" y="20" width="1" height="1" fill="#000000" />
<rect x="8" y="21" width="1" height="1" fill="#000000" />
<rect x="9" y="21" width="1" height="1" fill="#353535" />
<rect x="10" y="21" width="1" height="1" fill="#353535" />
<rect x="11" y="21" width="1" height="1" fill="#353535" />
<rect x="12" y="21" width="1" height="1" fill="#000000" opacity="0.858824" />
<rect x="13" y="21" width="1" height="1" fill="#000000" />
<rect x="8" y="22" width="1" height="1" fill="#000000" />
<rect x="9" y="22" width="1" height="1" fill="#353535" />
<rect x="10" y="22" width="1" height="1" fill="#353535" />
<rect x="11" y="22" width="1" height="1" fill="#353535" />
<rect x="12" y="22" width="1" height="1" fill="#A5A5A5" />
<rect x="13" y="22" width="1" height="1" fill="#000000" opacity="0.933333" />
<rect x="7" y="23" width="1" height="1" fill="#000000" />
<rect x="8" y="23" width="1" height="1" fill="#353535" />
<rect x="9" y="23" width="1" height="1" fill="#353535" />
<rect x="10" y="23" width="1" height="1" fill="#353535" />
<rect x="11" y="23" width="1" height="1" fill="#A5A5A5" />
<rect x="12" y="23" width="1" height="1" fill="#353535" />
<rect x="13" y="23" width="1" height="1" fill="#353535" />
<rect x="14" y="23" width="1" height="1" fill="#000000" />
<rect x="15" y="23" width="1" height="1" fill="#000000" />
<rect x="6" y="24" width="1" height="1" fill="#000000" />
<rect x="7" y="24" width="1" height="1" fill="#353535" />
<rect x="8" y="24" width="1" height="1" fill="#353535" />
<rect x="9" y="24" width="1" height="1" fill="#353535" />
<rect x="10" y="24" width="1" height="1" fill="#000000" />
<rect x="11" y="24" width="1" height="1" fill="#000000" />
<rect x="12" y="24" width="1" height="1" fill="#353535" />
<rect x="13" y="24" width="1" height="1" fill="#353535" />
<rect x="14" y="24" width="1" height="1" fill="#A5A5A5" />
<rect x="15" y="24" width="1" height="1" fill="#343434" />
<rect x="16" y="24" width="1" height="1" fill="#000000" />
<rect x="5" y="25" width="1" height="1" fill="#000000" />
<rect x="6" y="25" width="1" height="1" fill="#353535" />
<rect x="7" y="25" width="1" height="1" fill="#353535" />
<rect x="8" y="25" width="1" height="1" fill="#353535" />
<rect x="9" y="25" width="1" height="1" fill="#000000" />
<rect x="12" y="25" width="1" height="1" fill="#000000" />
<rect x="13" y="25" width="1" height="1" fill="#A5A5A5" />
<rect x="14" y="25" width="1" height="1" fill="#353535" />
<rect x="15" y="25" width="1" height="1" fill="#343434" />
<rect x="16" y="25" width="1" height="1" fill="#000000" />
<rect x="4" y="26" width="1" height="1" fill="#000000" />
<rect x="5" y="26" width="1" height="1" fill="#353535" />
<rect x="6" y="26" width="1" height="1" fill="#353535" />
<rect x="7" y="26" width="1" height="1" fill="#353535" />
<rect x="8" y="26" width="1" height="1" fill="#000000" />
<rect x="12" y="26" width="1" height="1" fill="#000000" />
<rect x="13" y="26" width="1" height="1" fill="#343434" />
<rect x="14" y="26" width="1" height="1" fill="#343434" />
<rect x="15" y="26" width="1" height="1" fill="#A5A5A5" />
<rect x="16" y="26" width="1" height="1" fill="#000000" />
<rect x="3" y="27" width="1" height="1" fill="#000000" />
<rect x="4" y="27" width="1" height="1" fill="#A5A5A5" />
<rect x="5" y="27" width="1" height="1" fill="#353535" />
<rect x="6" y="27" width="1" height="1" fill="#353535" />
<rect x="7" y="27" width="1" height="1" fill="#000000" />
<rect x="13" y="27" width="1" height="1" fill="#000000" />
<rect x="14" y="27" width="1" height="1" fill="#000000" />
<rect x="15" y="27" width="1" height="1" fill="#000000" />
<rect x="2" y="28" width="1" height="1" fill="#000000" />
<rect x="3" y="28" width="1" height="1" fill="#353535" />
<rect x="4" y="28" width="1" height="1" fill="#353535" />
<rect x="5" y="28" width="1" height="1" fill="#A5A5A5" />
<rect x="6" y="28" width="1" height="1" fill="#000000" />
<rect x="2" y="29" width="1" height="1" fill="#000000" />
<rect x="3" y="29" width="1" height="1" fill="#A5A5A5" />
<rect x="4" y="29" width="1" height="1" fill="#353535" />
<rect x="5" y="29" width="1" height="1" fill="#000000" />
<rect x="2" y="30" width="1" height="1" fill="#000000" />
<rect x="3" y="30" width="1" height="1" fill="#000000" />
<rect x="4" y="30" width="1" height="1" fill="#000000" />
</svg>