<?xml version="1.0" encoding="UTF-8" ?>
<svg version="1.1" width="32" height="32" xmlns="http://www.w3.org/2000/svg" shape-rendering="crispEdges">
<rect x="5" y="6" width="1" height="1" fill="#FFFFFF" />
<rect x="6" y="6" width="1" height="1" fill="#FFFFFF" />
<rect x="4" y="7" width="1" height="1" fill="#FFFFFF" />
<rect x="5" y="7" width="1" height="1" fill="#FFFFFF" />
<rect x="30" y="7" width="1" height="1" fill="#FFFFFF" />
<rect x="31" y="7" width="1" height="1" fill="#FFFFFF" />
<rect x="3" y="8" width="1" height="1" fill="#FFFFFF" />
<rect x="4" y="8" width="1" height="1" fill="#FFFFFF" />
<rect x="29" y="8" width="1" height="1" fill="#FFFFFF" />
<rect x="30" y="8" width="1" height="1" fill="#FFFFFF" />
<rect x="3" y="9" width="1" height="1" fill="#FFFFFF" />
<rect x="4" y="9" width="1" height="1" fill="#FFFFFF" />
<rect x="5" y="9" width="1" height="1" fill="#FFFFFF" />
<rect x="6" y="9" width="1" height="1" fill="#FFFFFF" />
<rect x="7" y="9" width="1" height="1" fill="#FFFFFF" />
<rect x="8" y="9" width="1" height="1" fill="#FFFFFF" />
<rect x="9" y="9" width="1" height="1" fill="#FFFFFF" />
<rect x="10" y="9" width="1" height="1" fill="#FFFFFF" />
<rect x="11" y="9" width="1" height="1" fill="#FFFFFF" />
<rect x="12" y="9" width="1" height="1" fill="#FFFFFF" />
<rect x="13" y="9" width="1" height="1" fill="#FFFFFF" />
<rect x="14" y="9" width="1" height="1" fill="#FFFFFF" />
<rect x="17" y="9" width="1" height="1" fill="#FFFFFF" />
<rect x="18" y="9" width="1" height="1" fill="#FFFFFF" />
<rect x="19" y="9" width="1" height="1" fill="#FFFFFF" />
<rect x="20" y="9" width="1" height="1" fill="#FFFFFF" />
<rect x="21" y="9" width="1" height="1" fill="#FFFFFF" />
<rect x="22" y="9" width="1" height="1" fill="#FFFFFF" />
<rect x="23" y="9" width="1" height="1" fill="#FFFFFF" />
<rect x="24" y="9" width="1" height="1" fill="#FFFFFF" />
<rect x="25" y="9" width="1" height="1" fill="#FFFFFF" />
<rect x="26" y="9" width="1" height="1" fill="#FFFFFF" />
<rect x="27" y="9" width="1" height="1" fill="#FFFFFF" />
<rect x="28" y="9" width="1" height="1" fill="#FFFFFF" />
<rect x="29" y="9" width="1" height="1" fill="#FFFFFF" />
<rect x="3" y="10" width="1" height="1" fill="#FFFFFF" />
<rect x="4" y="10" width="1" height="1" fill="#A8A8A8" />
<rect x="5" y="10" width="1" height="1" fill="#A8A8A8" />
<rect x="6" y="10" width="1" height="1" fill="#A8A8A8" />
<rect x="7" y="10" width="1" height="1" fill="#D8D8D8" />
<rect x="8" y="10" width="1" height="1" fill="#D8D8D8" />
<rect x="9" y="10" width="1" height="1" fill="#D8D8D8" />
<rect x="10" y="10" width="1" height="1" fill="#D8D8D8" />
<rect x="11" y="10" width="1" height="1" fill="#D8D8D8" />
<rect x="12" y="10" width="1" height="1" fill="#D8D8D8" />
<rect x="13" y="10" width="1" height="1" fill="#A8A8A8" />
<rect x="14" y="10" width="1" height="1" fill="#FFFFFF" />
<rect x="17" y="10" width="1" height="1" fill="#FFFFFF" />
<rect x="18" y="10" width="1" height="1" fill="#A8A8A8" />
<rect x="19" y="10" width="1" height="1" fill="#A8A8A8" />
<rect x="20" y="10" width="1" height="1" fill="#A8A8A8" />
<rect x="21" y="10" width="1" height="1" fill="#D8D8D8" />
<rect x="22" y="10" width="1" height="1" fill="#D8D8D8" />
<rect x="23" y="10" width="1" height="1" fill="#D8D8D8" />
<rect x="24" y="10" width="1" height="1" fill="#D8D8D8" />
<rect x="25" y="10" width="1" height="1" fill="#D8D8D8" />
<rect x="26" y="10" width="1" height="1" fill="#D8D8D8" />
<rect x="27" y="10" width="1" height="1" fill="#A8A8A8" />
<rect x="28" y="10" width="1" height="1" fill="#FFFFFF" />
<rect x="3" y="11" width="1" height="1" fill="#D7D7D7" />
<rect x="4" y="11" width="1" height="1" fill="#A8A8A8" />
<rect x="5" y="11" width="1" height="1" fill="#A8A8A8" />
<rect x="6" y="11" width="1" height="1" fill="#D8D8D8" />
<rect x="7" y="11" width="1" height="1" fill="#D8D8D8" />
<rect x="8" y="11" width="1" height="1" fill="#D8D8D8" />
<rect x="9" y="11" width="1" height="1" fill="#D8D8D8" />
<rect x="10" y="11" width="1" height="1" fill="#D8D8D8" />
<rect x="11" y="11" width="1" height="1" fill="#D8D8D8" />
<rect x="12" y="11" width="1" height="1" fill="#A8A8A8" />
<rect x="13" y="11" width="1" height="1" fill="#A8A8A8" />
<rect x="14" y="11" width="1" height="1" fill="#D7D7D7" />
<rect x="15" y="11" width="1" height="1" fill="#FFFFFF" />
<rect x="16" y="11" width="1" height="1" fill="#FFFFFF" />
<rect x="17" y="11" width="1" height="1" fill="#FFFFFF" />
<rect x="18" y="11" width="1" height="1" fill="#A8A8A8" />
<rect x="19" y="11" width="1" height="1" fill="#A8A8A8" />
<rect x="20" y="11" width="1" height="1" fill="#D8D8D8" />
<rect x="21" y="11" width="1" height="1" fill="#D8D8D8" />
<rect x="22" y="11" width="1" height="1" fill="#D8D8D8" />
<rect x="23" y="11" width="1" height="1" fill="#D8D8D8" />
<rect x="24" y="11" width="1" height="1" fill="#D8D8D8" />
<rect x="25" y="11" width="1" height="1" fill="#D8D8D8" />
<rect x="26" y="11" width="1" height="1" fill="#A8A8A8" />
<rect x="27" y="11" width="1" height="1" fill="#A8A8A8" />
<rect x="28" y="11" width="1" height="1" fill="#D7D7D7" />
<rect x="3" y="12" width="1" height="1" fill="#D7D7D7" />
<rect x="4" y="12" width="1" height="1" fill="#A8A8A8" />
<rect x="5" y="12" width="1" height="1" fill="#A8A8A8" />
<rect x="6" y="12" width="1" height="1" fill="#D8D8D8" />
<rect x="7" y="12" width="1" height="1" fill="#D8D8D8" />
<rect x="8" y="12" width="1" height="1" fill="#D8D8D8" />
<rect x="9" y="12" width="1" height="1" fill="#D8D8D8" />
<rect x="10" y="12" width="1" height="1" fill="#D8D8D8" />
<rect x="11" y="12" width="1" height="1" fill="#D8D8D8" />
<rect x="12" y="12" width="1" height="1" fill="#A8A8A8" />
<rect x="13" y="12" width="1" height="1" fill="#A8A8A8" />
<rect x="14" y="12" width="1" height="1" fill="#D7D7D7" />
<rect x="17" y="12" width="1" height="1" fill="#FFFFFF" />
<rect x="18" y="12" width="1" height="1" fill="#A8A8A8" />
<rect x="19" y="12" width="1" height="1" fill="#A8A8A8" />
<rect x="20" y="12" width="1" height="1" fill="#D8D8D8" />
<rect x="21" y="12" width="1" height="1" fill="#D8D8D8" />
<rect x="22" y="12" width="1" height="1" fill="#D8D8D8" />
<rect x="23" y="12" width="1" height="1" fill="#D8D8D8" />
<rect x="24" y="12" width="1" height="1" fill="#D8D8D8" />
<rect x="25" y="12" width="1" height="1" fill="#D8D8D8" />
<rect x="26" y="12" width="1" height="1" fill="#A8A8A8" />
<rect x="27" y="12" width="1" height="1" fill="#A8A8A8" />
<rect x="28" y="12" width="1" height="1" fill="#D7D7D7" />
<rect x="3" y="13" width="1" height="1" fill="#FFFFFF" />
<rect x="4" y="13" width="1" height="1" fill="#A8A8A8" />
<rect x="5" y="13" width="1" height="1" fill="#A8A8A8" />
<rect x="6" y="13" width="1" height="1" fill="#D8D8D8" />
<rect x="7" y="13" width="1" height="1" fill="#D8D8D8" />
<rect x="8" y="13" width="1" height="1" fill="#D8D8D8" />
<rect x="9" y="13" width="1" height="1" fill="#D8D8D8" />
<rect x="10" y="13" width="1" height="1" fill="#D8D8D8" />
<rect x="11" y="13" width="1" height="1" fill="#D8D8D8" />
<rect x="12" y="13" width="1" height="1" fill="#A8A8A8" />
<rect x="13" y="13" width="1" height="1" fill="#A8A8A8" />
<rect x="14" y="13" width="1" height="1" fill="#FFFFFF" />
<rect x="17" y="13" width="1" height="1" fill="#FFFFFF" />
<rect x="18" y="13" width="1" height="1" fill="#A8A8A8" />
<rect x="19" y="13" width="1" height="1" fill="#A8A8A8" />
<rect x="20" y="13" width="1" height="1" fill="#D8D8D8" />
<rect x="21" y="13" width="1" height="1" fill="#D8D8D8" />
<rect x="22" y="13" width="1" height="1" fill="#D8D8D8" />
<rect x="23" y="13" width="1" height="1" fill="#D8D8D8" />
<rect x="24" y="13" width="1" height="1" fill="#D8D8D8" />
<rect x="25" y="13" width="1" height="1" fill="#D8D8D8" />
<rect x="26" y="13" width="1" height="1" fill="#A8A8A8" />
<rect x="27" y="13" width="1" height="1" fill="#A8A8A8" />
<rect x="28" y="13" width="1" height="1" fill="#FFFFFF" />
<rect x="3" y="14" width="1" height="1" fill="#FFFFFF" />
<rect x="4" y="14" width="1" height="1" fill="#FFFFFF" />
<rect x="5" y="14" width="1" height="1" fill="#FFFFFF" />
<rect x="6" y="14" width="1" height="1" fill="#FFFFFF" />
<rect x="7" y="14" width="1" height="1" fill="#FFFFFF" />
<rect x="8" y="14" width="1" height="1" fill="#FFFFFF" />
<rect x="9" y="14" width="1" height="1" fill="#FFFFFF" />
<rect x="10" y="14" width="1" height="1" fill="#FFFFFF" />
<rect x="11" y="14" width="1" height="1" fill="#FFFFFF" />
<rect x="12" y="14" width="1" height="1" fill="#FFFFFF" />
<rect x="13" y="14" width="1" height="1" fill="#FFFFFF" />
<rect x="14" y="14" width="1" height="1" fill="#FFFFFF" />
<rect x="17" y="14" width="1" height="1" fill="#FFFFFF" />
<rect x="18" y="14" width="1" height="1" fill="#D7D7D7" />
<rect x="19" y="14" width="1" height="1" fill="#D7D7D7" />
<rect x="20" y="14" width="1" height="1" fill="#D7D7D7" />
<rect x="21" y="14" width="1" height="1" fill="#D7D7D7" />
<rect x="22" y="14" width="1" height="1" fill="#D7D7D7" />
<rect x="23" y="14" width="1" height="1" fill="#D7D7D7" />
<rect x="24" y="14" width="1" height="1" fill="#FFFFFF" />
<rect x="25" y="14" width="1" height="1" fill="#FFFFFF" />
<rect x="26" y="14" width="1" height="1" fill="#FFFFFF" />
<rect x="27" y="14" width="1" height="1" fill="#FFFFFF" />
<rect x="28" y="14" width="1" height="1" fill="#FFFFFF" />
<rect x="3" y="15" width="1" height="1" fill="#FFFFFF" />
<rect x="4" y="15" width="1" height="1" fill="#FFFFFF" />
<rect x="28" y="15" width="1" height="1" fill="#FFFFFF" />
<rect x="5" y="16" width="1" height="1" fill="#FFFFFF" />
<rect x="28" y="16" width="1" height="1" fill="#FFFFFF" />
<rect x="6" y="17" width="1" height="1" fill="#FFFFFF" />
<rect x="7" y="17" width="1" height="1" fill="#FFFFFF" />
<rect x="8" y="17" width="1" height="1" fill="#FFFFFF" />
<rect x="28" y="17" width="1" height="1" fill="#FFFFFF" />
<rect x="9" y="18" width="1" height="1" fill="#FFFFFF" />
<rect x="10" y="18" width="1" height="1" fill="#FFFFFF" />
<rect x="25" y="18" width="1" height="1" fill="#FFFFFF" />
<rect x="26" y="18" width="1" height="1" fill="#FFFFFF" />
<rect x="27" y="18" width="1" height="1" fill="#FFFFFF" />
<rect x="28" y="18" width="1" height="1" fill="#FFFFFF" />
<rect x="10" y="19" width="1" height="1" fill="#FFFFFF" />
<rect x="21" y="19" width="1" height="1" fill="#FFFFFF" />
<rect x="22" y="19" width="1" height="1" fill="#FFFFFF" />
<rect x="23" y="19" width="1" height="1" fill="#FFFFFF" />
<rect x="24" y="19" width="1" height="1" fill="#FFFFFF" />
<rect x="10" y="20" width="1" height="1" fill="#FFFFFF" />
<rect x="20" y="20" width="1" height="1" fill="#FFFFFF" />
<rect x="10" y="21" width="1" height="1" fill="#FFFFFF" />
<rect x="19" y="21" width="1" height="1" fill="#FFFFFF" />
<rect x="10" y="22" width="1" height="1" fill="#FFFFFF" />
<rect x="19" y="22" width="1" height="1" fill="#FFFFFF" />
<rect x="5" y="23" width="1" height="1" fill="#FFFFFF" />
<rect x="7" y="23" width="1" height="1" fill="#767676" />
<rect x="8" y="23" width="1" height="1" fill="#FFFFFF" />
<rect x="9" y="23" width="1" height="1" fill="#D8D8D8" />
<rect x="10" y="23" width="1" height="1" fill="#FFFFFF" />
<rect x="19" y="23" width="1" height="1" fill="#FFFFFF" />
<rect x="21" y="23" width="1" height="1" fill="#D8D8D8" />
<rect x="22" y="23" width="1" height="1" fill="#FFFFFF" />
<rect x="23" y="23" width="1" height="1" fill="#767676" />
<rect x="3" y="24" width="1" height="1" fill="#FFFFFF" />
<rect x="5" y="24" width="1" height="1" fill="#FFFFFF" />
<rect x="7" y="24" width="1" height="1" fill="#FFFFFF" />
<rect x="8" y="24" width="1" height="1" fill="#767676" />
<rect x="9" y="24" width="1" height="1" fill="#767676" />
<rect x="19" y="24" width="1" height="1" fill="#FFFFFF" />
<rect x="20" y="24" width="1" height="1" fill="#FFFFFF" />
<rect x="21" y="24" width="1" height="1" fill="#FFFFFF" />
<rect x="22" y="24" width="1" height="1" fill="#767676" />
<rect x="23" y="24" width="1" height="1" fill="#FFFFFF" />
<rect x="24" y="24" width="1" height="1" fill="#D8D8D8" />
<rect x="4" y="25" width="1" height="1" fill="#FFFFFF" />
<rect x="5" y="25" width="1" height="1" fill="#FFFFFF" />
<rect x="6" y="25" width="1" height="1" fill="#D8D8D8" />
<rect x="7" y="25" width="1" height="1" fill="#767676" />
<rect x="8" y="25" width="1" height="1" fill="#767676" />
<rect x="9" y="25" width="1" height="1" fill="#767676" />
<rect x="21" y="25" width="1" height="1" fill="#767676" />
<rect x="22" y="25" width="1" height="1" fill="#767676" />
<rect x="23" y="25" width="1" height="1" fill="#767676" />
<rect x="5" y="26" width="1" height="1" fill="#FFFFFF" />
<rect x="6" y="26" width="1" height="1" fill="#FFFFFF" />
<rect x="5" y="27" width="1" height="1" fill="#FFFFFF" />
<rect x="7" y="27" width="1" height="1" fill="#FFFFFF" />
<rect x="5" y="28" width="1" height="1" fill="#FFFFFF" />
</svg>